# xmcd CD database file
#
# Track frame offsets:
#	150
#	15794
#	28227
#	40200
#	54077
#	69422
#	81571
#	94537
#	114013
#	129122
#	141099
#	158018
#	173733
#	188708
#	207297
#
# Disc length: 2971 seconds
#
# Revision: 2
# Processed by: cddbd v1.5.1PL0 Copyright (c) Steve Scherf et al.
# Submitted via: CDex 1.51
#
DISCID=b00b990f
DTITLE=Kenny Rogers - Timeless Love Songs
DYEAR=2002
DGENRE=Jazz
TTITLE0=When I Fall in Love
TTITLE1=Somewhere My Love
TTITLE2=Love Is A Many Splendored Thing
TTITLE3=Love Me Tender
TTITLE4=Unforettable
TTITLE5=It Had To Be you
TTITLE6=As Time Goes By
TTITLE7=I Only Have Eyes For You
TTITLE8=Misty
TTITLE9=Always
TTITLE10=Stardust
TTITLE11=Through The Years
TTITLE12=Crazy
TTITLE13=My Funny Valentine
TTITLE14=Unchained Melody
EXTD=YEAR: 2002
EXTT0=
EXTT1=
EXTT2=
EXTT3=
EXTT4=
EXTT5=
EXTT6=
EXTT7=
EXTT8=
EXTT9=
EXTT10=
EXTT11=
EXTT12=
EXTT13=
EXTT14=
PLAYORDER=
